<svg width="2659" height="560" fill="none" xmlns="http://www.w3.org/2000/svg"><path d="M761.364 241.553c-10.606 10.606-15.909 23.422-15.909 38.447 0 15.025 5.303 27.904 15.909 38.636 10.732 10.606 23.611 15.909 38.636 15.909 15.025 0 27.841-5.303 38.447-15.909 10.732-10.732 16.098-23.611 16.098-38.636 0-15.025-5.366-27.841-16.098-38.447-10.606-10.732-23.422-16.098-38.447-16.098-15.025 0-27.904 5.366-38.636 16.098zm-9.659 86.742c-13.258-13.383-19.887-29.482-19.887-48.295 0-18.813 6.629-34.848 19.887-48.106 13.383-13.384 29.482-20.076 48.295-20.076 18.813 0 34.848 6.692 48.106 20.076 13.384 13.258 20.076 29.293 20.076 48.106 0 18.813-6.692 34.912-20.076 48.295-13.258 13.258-29.293 19.887-48.106 19.887-18.813 0-34.912-6.629-48.295-19.887zm-9.66-106.06c-15.909 16.035-23.863 35.29-23.863 57.765s7.954 41.73 23.863 57.765c16.036 16.036 35.354 24.053 57.955 24.053s41.856-8.017 57.765-24.053c16.036-16.035 24.053-35.29 24.053-57.765s-8.017-41.73-24.053-57.765c-15.909-16.036-35.164-24.053-57.765-24.053s-41.919 8.017-57.955 24.053zm-24.81 105.682c-8.46-14.647-12.69-30.619-12.69-47.917 0-17.298 4.23-33.27 12.69-47.917 8.586-14.646 20.202-26.199 34.848-34.659 14.647-8.586 30.619-12.879 47.917-12.879 17.298 0 33.27 4.293 47.917 12.879 14.646 8.46 26.199 20.013 34.659 34.659 8.586 14.647 12.879 30.619 12.879 47.917 0 17.298-4.293 33.27-12.879 47.917-8.46 14.646-20.013 26.262-34.659 34.848-14.647 8.46-30.619 12.69-47.917 12.69-17.298 0-33.27-4.23-47.917-12.69-14.646-8.586-26.262-20.202-34.848-34.848zm-17.803-90.152c-5.682 13.384-8.523 27.462-8.523 42.235s2.841 28.914 8.523 42.424c5.808 13.384 13.573 25 23.295 34.849 9.849 9.722 21.465 17.487 34.849 23.295 13.51 5.682 27.651 8.523 42.424 8.523s28.851-2.841 42.235-8.523c13.51-5.808 25.126-13.573 34.848-23.295 9.849-9.849 17.614-21.465 23.296-34.849 5.808-13.51 8.712-27.651 8.712-42.424s-2.904-28.851-8.712-42.235c-5.682-13.51-13.447-25.126-23.296-34.848-9.722-9.849-21.338-17.614-34.848-23.296-13.384-5.808-27.462-8.712-42.235-8.712s-28.914 2.904-42.424 8.712c-13.384 5.682-25 13.447-34.849 23.296-9.722 9.722-17.487 21.338-23.295 34.848zm-12.5 89.962c-6.44-15.151-9.659-31.06-9.659-47.727 0-16.667 3.219-32.576 9.659-47.727 6.565-15.152 15.278-28.157 26.136-39.015 10.985-10.985 24.053-19.697 39.205-26.137 15.151-6.565 31.06-9.848 47.727-9.848 16.667 0 32.576 3.283 47.727 9.848 15.152 6.44 28.157 15.152 39.015 26.137 10.985 10.858 19.697 23.863 26.137 39.015 6.565 15.151 9.848 31.06 9.848 47.727 0 16.667-3.283 32.576-9.848 47.727-6.44 15.152-15.152 28.22-26.137 39.205-10.858 10.858-23.863 19.571-39.015 26.136-15.151 6.44-31.06 9.659-47.727 9.659-16.667 0-32.576-3.219-47.727-9.659-15.152-6.565-28.22-15.278-39.205-26.136-10.858-10.985-19.571-24.053-26.136-39.205zm-12.5-100.568c-7.197 16.793-10.796 34.407-10.796 52.841 0 18.434 3.599 36.111 10.796 53.03 7.197 16.793 16.856 31.313 28.977 43.561 12.248 12.121 26.768 21.78 43.561 28.977 16.919 7.197 34.596 10.796 53.03 10.796 18.434 0 36.048-3.599 52.841-10.796 16.919-7.197 31.439-16.856 43.561-28.977 12.247-12.248 21.969-26.768 29.166-43.561 7.197-16.919 10.796-34.596 10.796-53.03 0-18.434-3.599-36.048-10.796-52.841-7.197-16.919-16.919-31.439-29.166-43.561-12.122-12.247-26.642-21.969-43.561-29.166-16.793-7.197-34.407-10.796-52.841-10.796-18.434 0-36.111 3.599-53.03 10.796-16.793 7.197-31.313 16.919-43.561 29.166-12.121 12.122-21.78 26.642-28.977 43.561zm-12.5 111.174C653.977 319.773 650 300.328 650 280c0-20.328 3.977-39.71 11.932-58.144 7.954-18.561 18.624-34.533 32.007-47.917 13.384-13.383 29.293-24.053 47.728-32.007C760.227 133.977 779.672 130 800 130c20.328 0 39.71 3.977 58.144 11.932 18.561 7.954 34.533 18.624 47.917 32.007 13.383 13.384 24.053 29.356 32.007 47.917C946.023 240.29 950 259.672 950 280c0 20.328-3.977 39.773-11.932 58.333-7.954 18.435-18.624 34.344-32.007 47.728-13.384 13.383-29.356 24.053-47.917 32.007C839.71 426.023 820.328 430 800 430c-20.328 0-39.773-3.977-58.333-11.932-18.435-7.954-34.344-18.624-47.728-32.007-13.383-13.384-24.053-29.293-32.007-47.728zM1028.98 219.205h13.63v197.159h-13.63V219.205zm-54.548-61.932v-13.637h204.548v13.637H974.432zm0 27.272v-13.636h204.548v13.636H974.432zm0 27.273v-13.636h204.548v13.636H974.432zm136.368 7.387h13.63v197.159h-13.63V219.205zm-27.28 0h13.64v197.159h-13.64V219.205zm-27.27 0h13.64v197.159h-13.64V219.205zM1314.96 287.955h57.77c11.36 0 21.02-3.41 28.97-10.228 7.96-6.818 11.94-16.414 11.94-28.788 0-9.596-4.17-18.181-12.5-25.757-8.34-7.576-17.81-11.364-28.41-11.364h-95.46v204.546h-13.63V198.182h109.09c14.52 0 27.21 5.113 38.07 15.341 10.98 10.227 16.47 22.033 16.47 35.416 0 16.036-5.3 28.851-15.91 38.447-10.6 9.47-23.48 14.205-38.63 14.205h-57.77v-13.636zm0 27.272h57.77c18.68 0 34.72-6.187 48.1-18.56 13.39-12.374 20.08-28.283 20.08-47.728 0-17.045-6.82-32.007-20.46-44.886-13.63-13.005-29.54-19.508-47.72-19.508H1250v231.819h-13.64V170.909h136.37c21.97 0 41.1 7.828 57.38 23.485 16.29 15.53 24.44 33.712 24.44 54.545 0 22.728-8.09 41.73-24.25 57.008-16.03 15.278-35.22 22.917-57.57 22.917h-57.77v-13.637zm0 27.273h57.77c17.04 0 32.83-4.04 47.35-12.121 14.64-8.081 26.32-19.318 35.03-33.712 8.72-14.394 13.07-30.303 13.07-47.728 0-16.035-4.35-31.123-13.07-45.265-8.58-14.141-20.26-25.379-35.03-33.712-14.65-8.459-30.43-12.689-47.35-12.689h-150v259.091h-13.64V143.636h163.64c14.39 0 28.28 2.841 41.66 8.523 13.51 5.682 25.19 13.321 35.04 22.917 9.85 9.469 17.68 20.707 23.49 33.712 5.93 12.879 8.9 26.263 8.9 40.151 0 16.288-2.91 31.25-8.71 44.887-5.81 13.636-13.7 25-23.68 34.091-9.97 8.964-21.59 15.909-34.85 20.833-13.13 4.924-27.08 7.386-41.85 7.386h-57.77V342.5zm-10.41 73.864h-13.64V225.455h81.82c7.45 0 13.82 2.335 19.13 7.007 5.43 4.546 8.14 10.038 8.14 16.477 0 16.92-9.09 25.379-27.27 25.379h-57.77v-13.636h57.77c9.09 0 13.63-3.914 13.63-11.743 0-2.777-1.32-5.113-3.97-7.007-2.66-1.894-5.87-2.841-9.66-2.841h-68.18v177.273zM1706.06 281.894c0-16.162-4.99-28.662-14.96-37.5-9.98-8.838-23.17-13.258-39.58-13.258-13.89 0-25.83 4.798-35.8 14.394-9.98 9.596-14.96 21.086-14.96 34.47 0 7.576 1.01 14.394 3.03 20.455 2.02 5.934 4.73 10.921 8.14 14.962 3.54 3.914 7.7 7.197 12.5 9.848 4.8 2.525 9.79 4.356 14.96 5.493 5.31 1.136 10.93 1.704 16.86 1.704 14.39 0 27.53-3.535 39.39-10.606v13.636c-12.24 6.44-25.44 9.66-39.58 9.66-9.09 0-17.68-1.2-25.76-3.599-7.95-2.525-15.21-6.25-21.78-11.174-6.56-5.051-11.8-11.869-15.72-20.455-3.78-8.712-5.68-18.687-5.68-29.924 0-17.424 6.12-32.197 18.37-44.318 12.25-12.121 27.59-18.182 46.03-18.182 20.32 0 36.74 5.745 49.24 17.235 12.62 11.363 18.94 27.083 18.94 47.159v134.47h-13.64v-134.47zm40.91 0v134.47h-13.64v-134.47c0-23.864-7.64-42.803-22.91-56.818-15.28-14.142-34.91-21.212-58.9-21.212-22.23 0-40.79 7.386-55.69 22.159-14.9 14.772-22.35 32.765-22.35 53.977 0 12.879 2.21 24.432 6.63 34.659 4.55 10.227 10.67 18.434 18.37 24.621 7.71 6.187 16.29 10.922 25.76 14.205 9.6 3.156 19.7 4.735 30.31 4.735 14.39 0 28.09-3.346 41.09-10.038v14.394c-13.63 5.682-27.4 8.522-41.28 8.522-12.5 0-24.37-1.893-35.61-5.681-11.24-3.914-21.28-9.533-30.11-16.856-8.84-7.45-15.85-17.046-21.03-28.788-5.17-11.869-7.76-25.127-7.76-39.773 0-24.874 8.77-46.023 26.32-63.447 17.68-17.55 39.46-26.326 65.35-26.326 18.18 0 34.46 3.725 48.86 11.175 14.39 7.323 25.76 17.992 34.09 32.007 8.33 14.015 12.5 30.177 12.5 48.485zm27.27 0v134.47h-13.63v-134.47c0-20.833-4.8-39.268-14.4-55.303-9.47-16.162-22.47-28.535-39.01-37.121-16.54-8.586-35.1-12.879-55.68-12.879-19.58 0-37.44 4.672-53.6 14.015-16.16 9.217-28.85 21.717-38.07 37.5-9.09 15.783-13.64 33.081-13.64 51.894 0 16.162 2.97 30.934 8.9 44.318 5.94 13.258 13.89 24.179 23.87 32.765 10.1 8.586 21.53 15.278 34.28 20.076 12.88 4.672 26.32 7.008 40.34 7.008 14.27 0 28.28-2.968 42.04-8.902v13.826c-14.39 5.429-28.53 8.144-42.42 8.144-21.84 0-41.92-4.924-60.23-14.773-18.31-9.848-32.95-23.8-43.94-41.856-10.98-18.055-16.47-38.258-16.47-60.606 0-15.909 3.03-31.061 9.09-45.455 6.18-14.393 14.52-26.83 25-37.31 10.48-10.48 23.1-18.813 37.88-25 14.77-6.187 30.42-9.28 46.97-9.28 23.1 0 43.93 4.924 62.5 14.772 18.68 9.849 33.39 23.864 44.12 42.046 10.74 18.182 16.1 38.889 16.1 62.121zm27.28 0v134.47h-13.64v-134.47c0-25.758-6-48.737-17.99-68.939-12-20.329-28.35-35.985-49.06-46.97-20.7-11.111-43.81-16.667-69.31-16.667-24.5 0-46.91 5.871-67.24 17.614-20.33 11.742-36.3 27.651-47.92 47.727-11.61 19.95-17.42 41.73-17.42 65.341 0 15.53 2.46 30.303 7.39 44.318 5.05 13.889 11.86 26.073 20.45 36.553a144.544 144.544 0 0 0 29.92 26.894c11.37 7.576 23.55 13.321 36.56 17.235 13.13 3.914 26.45 5.871 39.96 5.871 14.9 0 29.04-2.841 42.42-8.523v14.016c-14.01 4.924-28.41 7.386-43.18 7.386-15.28 0-30.17-2.146-44.69-6.439-14.4-4.293-27.78-10.606-40.16-18.94-12.24-8.459-23.04-18.371-32.38-29.735-9.35-11.49-16.67-24.873-21.97-40.151-5.31-15.278-7.96-31.44-7.96-48.485 0-19.571 3.66-38.194 10.99-55.871 7.45-17.803 17.55-33.144 30.3-46.023 12.88-13.005 28.41-23.295 46.59-30.871 18.31-7.702 37.75-11.553 58.34-11.553 20.95 0 40.65 3.535 59.09 10.606 18.43 7.071 34.34 16.919 47.72 29.545 13.39 12.5 23.93 27.904 31.63 46.212 7.7 18.309 11.56 38.258 11.56 59.849zM2014.2 295.53V143.636h13.64V295.53c0 14.394-5.55 26.768-16.67 37.122-10.98 10.353-24.24 15.53-39.77 15.53-15.53 0-28.85-5.177-39.96-15.53-10.99-10.354-16.48-22.728-16.48-37.122V143.636h13.64V295.53c0 10.733 4.17 19.95 12.5 27.652 8.46 7.576 18.56 11.363 30.3 11.363 11.74 0 21.78-3.787 30.12-11.363 8.45-7.702 12.68-16.919 12.68-27.652zm27.28 0V143.636h13.63V295.53c0 22.096-8.2 40.973-24.62 56.629-16.41 15.53-36.11 23.296-59.09 23.296-22.98 0-42.68-7.766-59.09-23.296-16.41-15.656-24.62-34.533-24.62-56.629V143.636h13.64V295.53c0 18.308 6.81 33.965 20.45 46.97 13.76 12.879 30.3 19.318 49.62 19.318 19.19 0 35.67-6.439 49.43-19.318 13.77-13.005 20.65-28.662 20.65-46.97zm27.27 0V143.636h13.64V295.53c0 19.318-4.99 37.248-14.97 53.788-9.97 16.414-23.48 29.419-40.53 39.015-17.04 9.596-35.54 14.394-55.49 14.394-19.95 0-38.45-4.798-55.49-14.394-17.05-9.596-30.56-22.601-40.53-39.015-9.98-16.54-14.96-34.47-14.96-53.788V143.636h13.63V295.53c0 16.793 4.36 32.387 13.07 46.781 8.71 14.394 20.52 25.82 35.42 34.28 15.02 8.333 31.31 12.5 48.86 12.5s33.78-4.167 48.68-12.5c15.02-8.46 26.89-19.886 35.6-34.28 8.71-14.394 13.07-29.988 13.07-46.781zm27.27 0V143.636h13.64V295.53c0 18.182-3.66 35.606-10.99 52.273-7.32 16.54-17.17 30.808-29.54 42.803-12.37 11.995-27.08 21.528-44.13 28.599-17.05 7.197-34.91 10.795-53.6 10.795-18.69 0-36.55-3.598-53.6-10.795-17.04-7.071-31.75-16.604-44.13-28.599-12.37-11.995-22.22-26.263-29.54-42.803-7.32-16.667-10.99-34.091-10.99-52.273V143.636h13.64V295.53c0 21.717 5.56 41.856 16.67 60.417 11.23 18.561 26.39 33.27 45.45 44.129 19.19 10.858 40.03 16.288 62.5 16.288 22.48 0 43.25-5.43 62.31-16.288 19.19-10.859 34.35-25.568 45.46-44.129 11.23-18.561 16.85-38.7 16.85-60.417zM2192.23 219.205h13.64v197.159h-13.64V219.205zm-54.54-61.932v-13.637h204.54v13.637h-204.54zm0 27.272v-13.636h204.54v13.636h-204.54zm0 27.273v-13.636h204.54v13.636h-204.54zm136.36 7.387h13.64v197.159h-13.64V219.205zm-27.27 0h13.64v197.159h-13.64V219.205zm-27.27 0h13.63v197.159h-13.63V219.205zM2645.27 143.636h13.63v272.728h-13.63V143.636zm-272.92 0h13.63v272.728h-13.63V143.636zm245.64 0h13.64v272.728h-13.64V143.636zm-27.27 0h13.64v272.728h-13.64V143.636zm-27.27 0h13.63v272.728h-13.63V307.273h-95.65v109.091h-13.63V143.636h13.63v95.455h95.65v-95.455zm-136.56 0h13.64v272.728h-13.64V143.636zm-27.27 0h13.64v272.728h-13.64V143.636zm163.83 150V280h-95.65v13.636h95.65zm0-27.272v-13.637h-95.65v13.637h95.65z" fill="#000"/><circle cx="280" cy="280" fill="#3E7FCB" r="280"/><circle cx="280" cy="280" fill="#fff" r="260"/><circle cx="280" cy="280" fill="#3E7FCB" r="240"/><path d="M366.969 420c-14.339 0-26.923-9.092-31.314-22.625l-15.971-48.723h-79.897l-14.839 48.279c-4.479 13.796-17.158 23.031-31.571 23.031-3.46 0-6.897-.548-10.216-1.626-17.227-5.179-27.008-23.744-21.73-41.362l67.437-213.879C233.247 149.49 246.139 140 260.221 140h35.859c14.161 0 27.051 9.328 31.345 22.686l70.921 213.798c5.671 17.48-3.719 36.244-20.921 41.851A33.797 33.797 0 0 1 366.969 420z" fill="#fff" stroke="#3E7FCB" stroke-width="5.363"/><path d="M393.244 210v-33.244H360v-13.512h33.244V130h13.512v33.244H440v13.512h-33.244V210h-13.512z" fill="#fff"/></svg>